<svg xmlns="http://www.w3.org/2000/svg" width="1172.667" height="857.134" viewBox="0 0 1172.667 857.134">
  <g id="Group_12" data-name="Group 12" transform="translate(-5211.664 -11649.691)">
    <g id="Group_11" data-name="Group 11" transform="translate(-7306.001 12050.734)">
      <path id="Path_6" data-name="Path 6" d="M2737,393.983v-261.3l-119.365,79.531Z" transform="translate(10061.449 -265.464)" fill="#5f6d72"/>
      <path id="Path_5" data-name="Path 5" d="M2593.231,240.261l-86.963,169.367,218.635,3.4L2604.36,229.341Z" transform="translate(10073.548 -284.505)" fill="#7e9698"/>
      <path id="Path_4" data-name="Path 4" d="M2497.318,408.785l97-184.972L2450.25,326.032Z" transform="translate(10082.68 -283.416)" fill="#90a9ad"/>
      <path id="Path_1" data-name="Path 1" d="M2445.711,307.513,2711.1,133.734l-279.436,23.08Z" transform="translate(10086.869 -264.867)" fill="#a2c0c0"/>
      <path id="Path_2" data-name="Path 2" d="M2431.664,128.665,2530.653-5.448,2712.12,104.517Z" transform="translate(10086.001 -235.842)" fill="#b5d4cf"/>
      <path id="Path_3" data-name="Path 3" d="M2727.2,77.757l71.257-232.245L2545.91-31.6Z" transform="translate(10070.052 -208.89)" fill="#a2c0c0"/>
      <path id="Path_7" data-name="Path 7" d="M2600.424,511.162l121.094-53.727-218.423-3.57Z" transform="translate(10076.571 -329.54)" fill="#5f6d72"/>
      <path id="Path_8" data-name="Path 8" d="M2695.856,524.306l40.592-66.758-121.317,54.1Z" transform="translate(10060.912 -329.462)" fill="#4c595c"/>
      <path id="Path_9" data-name="Path 9" d="M2825.107,283.373,2754.338,133.8V393.873Z" transform="translate(10039.563 -265.682)" fill="#4c595c"/>
      <path id="Path_10" data-name="Path 10" d="M2772.841,514.129,2748.166,456.8l-39.7,66.158Z" transform="translate(10045.326 -328.513)" fill="#5f6d72"/>
      <path id="Path_11" data-name="Path 11" d="M2806.483,382.677l17.064-60.09-71.671,111.037,25.882,55.405Z" transform="translate(10039.912 -302.875)" fill="#3a3843"/>
      <path id="Path_12" data-name="Path 12" d="M2824.876-154.488,2752.59,80.878,2827.9,239.691Z" transform="translate(10039.798 -208.89)" fill="#3a3843"/>
      <path id="Path_13" data-name="Path 13" d="M2973.884,488.724l-145.03-167.687-46.41,167.687Z" transform="translate(10034.158 -302.569)" fill="#b5d4cf"/>
      <path id="Path_14" data-name="Path 14" d="M3037.514,42.465,2835.472-155.182V73.6Z" transform="translate(10027.245 -208.753)" fill="#b5d4cf"/>
      <path id="Path_15" data-name="Path 15" d="M2835.87,277.174,3038.281,92.066,2835.87,122.439Z" transform="translate(10027.187 -257.461)" fill="#a2c0c0"/>
      <path id="Path_16" data-name="Path 16" d="M3052.933,366.014l-72.486,123.244-144.936-167.4Z" transform="translate(10027.155 -302.732)" fill="#a2c0c0"/>
      <path id="Path_21" data-name="Path 21" d="M3076.23,348.6l280.125-130.867,37.854,135.285Z" transform="translate(9991.057 -282.217)" fill="#b5d4cf"/>
      <path id="Path_17" data-name="Path 17" d="M3052.88,327.609l-217.77-50.551,202.93-185.671Z" transform="translate(10026.355 -257.328)" fill="#7e9698"/>
      <path id="Path_18" data-name="Path 18" d="M3082.545,323.554,3355.381,191.7,3066.39,90.615Z" transform="translate(9992.818 -257.176)" fill="#5f6d72"/>
      <path id="Path_19" data-name="Path 19" d="M3259.658,542l-256.913-41.753,73.2-125.128Z" transform="translate(10002.453 -313.223)" fill="#4c595c"/>
      <path id="Path_20" data-name="Path 20" d="M3394.145,383.988l-308.03-6.418,185.208,164.246Z" transform="translate(9989.714 -313.706)" fill="#a2c0c0"/>
      <path id="Path_22" data-name="Path 22" d="M3066.91,662.495,3258.519,571.6l-256.044-41.278Z" transform="translate(10002.5 -343.799)" fill="#3a3843"/>
      <path id="Path_23" data-name="Path 23" d="M3399.336,217.729l146,52.831-109.263,81.049Z" transform="translate(9945.904 -282.217)" fill="#3a3843"/>
      <path id="Path_24" data-name="Path 24" d="M3323.4-37.127l180.55-73.64L3535.1,204.5Z" transform="translate(9956.131 -217.503)" fill="#3a3843"/>
      <path id="Path_37" data-name="Path 37" d="M3468.641,795.422l120.652-63.563-257.341-17.847Z" transform="translate(9951.828 -379.986)" fill="#7e9698"/>
      <path id="Path_25" data-name="Path 25" d="M3502.938,223.631l-211.1-242.455-223.4,89.518Z" transform="translate(9990.7 -234.813)" fill="#4c595c"/>
      <path id="Path_26" data-name="Path 26" d="M3293.633-49.893l-87.377-151.5L3068.364,35.42Z" transform="translate(9993.153 -199.649)" fill="#b5d4cf"/>
      <path id="Path_27" data-name="Path 27" d="M3175.5-201.395l-339.375,38.621,202.1,197.833Z" transform="translate(10026.268 -199.649)" fill="#a2c0c0"/>
      <path id="Path_28" data-name="Path 28" d="M3490.016-128.284l-264.26-71.4,87.267,152.173Z" transform="translate(9969.737 -199.985)" fill="#7e9698"/>
      <path id="Path_29" data-name="Path 29" d="M3704.749,102.39l-174.8-210.828,32.614,314.574Z" transform="translate(9925.69 -217.962)" fill="#7e9698"/>
      <path id="Path_30" data-name="Path 30" d="M3753,376.526l-61.146-223.539-250.1,185.545Z" transform="translate(9937.333 -269.463)" fill="#b5d4cf"/>
      <path id="Path_31" data-name="Path 31" d="M3588.023,542.944,3422.956,383.3,3299.25,542.944Z" transform="translate(9956.146 -314.835)" fill="#b5d4cf"/>
      <path id="Path_32" data-name="Path 32" d="M3721.6,526.565,3603.74,541.857,3441.212,383.07Z" transform="translate(9937.406 -314.79)" fill="#7e9698"/>
      <path id="Path_33" data-name="Path 33" d="M3722.31,527.175,3752.1,421.968l-310.176-37.9Z" transform="translate(9937.312 -314.987)" fill="#5f6d72"/>
      <path id="Path_34" data-name="Path 34" d="M3327.117,687.917l258.335-106.37H3298.436Z" transform="translate(9956.255 -353.89)" fill="#a2c0c0"/>
      <path id="Path_35" data-name="Path 35" d="M3605.018,634.812l-17.235-52.856-255.408,106Z" transform="translate(9951.773 -353.971)" fill="#7e9698"/>
      <path id="Path_36" data-name="Path 36" d="M3589.921,718.594l14.391-71.511-272.023,53.6Z" transform="translate(9951.785 -366.801)" fill="#5f6d72"/>
      <path id="Path_38" data-name="Path 38" d="M3353.24,804.451l115.742-9.864-137.265-80.9Z" transform="translate(9955.79 -379.922)" fill="#a2c0c0"/>
      <path id="Path_39" data-name="Path 39" d="M3343.534,796.8l6.453-23.233-52.541-192.025-8.562,114.466Z" transform="translate(9962.719 -353.89)" fill="#b5d4cf"/>
      <path id="Path_40" data-name="Path 40" d="M3287.842,723.519,3280.99,837.95l62.38-13.618Z" transform="translate(9963.844 -381.859)" fill="#4c595c"/>
      <path id="Path_41" data-name="Path 41" d="M3271.256,810.064l-70.914-88.324,86.092-139.668Z" transform="translate(9974.392 -353.994)" fill="#4c595c"/>
      <path id="Path_42" data-name="Path 42" d="M3198.6,722.269l-29.812-17.294L3282.666,582.32Z" transform="translate(9979.563 -354.043)" fill="#7c9496"/>
      <path id="Path_43" data-name="Path 43" d="M3105.126,689.389l57.146,14.632,113.691-124.755Z" transform="translate(9988.289 -353.441)" fill="#4c595c"/>
      <path id="Path_44" data-name="Path 44" d="M3270.016,580.793,3076.25,672.5l26.6,17.271Z" transform="translate(9992.284 -353.742)" fill="#7c9496"/>
      <path id="Path_45" data-name="Path 45" d="M2980.569,665.01l84.672-2.646-66.088-133.116Z" transform="translate(10006.922 -343.587)" fill="#4c595c"/>
      <path id="Path_46" data-name="Path 46" d="M2983.105,532.188l-124.236,97.5,105.995,36.026Z" transform="translate(10024.263 -344.167)" fill="#5f6d72"/>
      <path id="Path_47" data-name="Path 47" d="M2857.947,628.758l-20.546-24.64,143.521-73.134Z" transform="translate(10027.271 -343.929)" fill="#7d9698"/>
      <path id="Path_48" data-name="Path 48" d="M2798.211,579.754l35.863,24.836,141.694-74.2Z" transform="translate(10032.787 -343.813)" fill="#91aaae"/>
      <path id="Path_49" data-name="Path 49" d="M2979.811,530.391H2782.8l15.184,49.646Z" transform="translate(10034.935 -343.813)" fill="#a2c2c1"/>
    </g>
  </g>
</svg>
