<svg xmlns="http://www.w3.org/2000/svg" width="1774.635" height="1384.025" viewBox="0 0 1774.635 1384.025">
  <g id="Group_5" data-name="Group 5" transform="translate(-2431.663 201.395)">
    <path id="Path_6" data-name="Path 6" d="M2795.947,554.605V132.685l-178.309,128.42Z" transform="translate(55.162 99.091)" fill="#ff6a47"/>
    <path id="Path_5" data-name="Path 5" d="M2636.175,246.974l-161.424,272.94,358.118,6.022L2652.8,229.341Z" transform="translate(18.239 127.76)" fill="#fa7d60"/>
    <path id="Path_4" data-name="Path 4" d="M2489.35,522.072l176.107-298.26L2450.25,388.867Z" transform="translate(4.216 126.12)" fill="#fa967f"/>
    <path id="Path_1" data-name="Path 1" d="M2452.648,414.336l396.441-280.6L2431.663,171Z" transform="translate(1.297 100.699)" fill="#fabdaf"/>
    <path id="Path_2" data-name="Path 2" d="M2431.663,211.106,2579.535-5.448l271.079,177.561Z" transform="translate(0 62.009)" fill="#fcd5cb"/>
    <path id="Path_3" data-name="Path 3" d="M2816.727,220.52l106.444-375.008L2545.91,43.937Z" transform="translate(32.59 13.913)" fill="#fabdaf"/>
    <path id="Path_7" data-name="Path 7" d="M2616.054,562.22l213.324-102.591-357.906-5.234Z" transform="translate(21.187 193.059)" fill="#ff6a47"/>
    <path id="Path_8" data-name="Path 8" d="M2735.719,565.343l60.637-107.8L2584.635,560.182Z" transform="translate(53.121 195.448)" fill="#fa5933"/>
    <path id="Path_9" data-name="Path 9" d="M2860.053,375.32,2754.339,133.8V553.745Z" transform="translate(95.708 99.421)" fill="#fa5933"/>
    <path id="Path_10" data-name="Path 10" d="M2804.63,549.367,2767.77,456.8l-59.3,106.826Z" transform="translate(80.806 196.524)" fill="#ff6a47"/>
    <path id="Path_11" data-name="Path 11" d="M2833.449,419.615l25.489-97.028L2751.876,501.88l38.663,89.464Z" transform="translate(94.978 155.418)" fill="#fa370a"/>
    <path id="Path_12" data-name="Path 12" d="M2860.572-154.488,2752.589,225.56,2865.089,482Z" transform="translate(95.189 13.913)" fill="#fa370a"/>
    <path id="Path_13" data-name="Path 13" d="M3068.42,591.8,2851.772,321.037,2782.444,591.8Z" transform="translate(102.748 154.958)" fill="#fcd5cb"/>
    <path id="Path_14" data-name="Path 14" d="M3137.286,163.96,2835.472-155.182V214.24Z" transform="translate(119.773 13.707)" fill="#fcd5cb"/>
    <path id="Path_15" data-name="Path 15" d="M2835.87,390.962l302.364-298.9L2835.87,141.11Z" transform="translate(119.892 87.043)" fill="#fabdaf"/>
    <path id="Path_16" data-name="Path 16" d="M3160.3,393.155l-108.28,199-216.507-270.3Z" transform="translate(119.785 155.203)" fill="#fabdaf"/>
    <path id="Path_21" data-name="Path 21" d="M3076.229,429.042l418.455-211.313,56.546,218.446Z" transform="translate(191.184 124.316)" fill="#fabdaf"/>
    <path id="Path_17" data-name="Path 17" d="M3160.418,472.817l-325.309-81.625L3138.25,91.387Z" transform="translate(118.369 86.842)" fill="#fa7d60"/>
    <path id="Path_18" data-name="Path 18" d="M3090.522,466.745,3498.09,253.836,3066.39,90.615Z" transform="translate(188.265 86.613)" fill="#ff6a47"/>
    <path id="Path_19" data-name="Path 19" d="M3386.526,644.581l-383.781-67.42,109.346-202.045Z" transform="translate(169.388 170.998)" fill="#fa5933"/>
    <path id="Path_20" data-name="Path 20" d="M3546.256,387.933,3086.114,377.57l276.667,265.209Z" transform="translate(194.116 171.726)" fill="#fa7d60"/>
    <path id="Path_22" data-name="Path 22" d="M3098.729,743.741l286.229-146.764-382.482-66.653Z" transform="translate(169.308 217.034)" fill="#fa370a"/>
    <path id="Path_23" data-name="Path 23" d="M3399.335,217.729l218.093,85.307L3454.21,433.907Z" transform="translate(287.02 124.316)" fill="#fa370a"/>
    <path id="Path_24" data-name="Path 24" d="M3323.4,8.14l269.709-118.907L3639.641,398.3Z" transform="translate(264.499 26.881)" fill="#fa370a"/>
    <path id="Path_37" data-name="Path 37" d="M3536.14,845.465l180.231-102.636L3331.95,714.012Z" transform="translate(267.033 271.518)" fill="#fa967f"/>
    <path id="Path_25" data-name="Path 25" d="M3717.5,372.671l-315.351-391.5L3068.435,125.721Z" transform="translate(188.872 55.448)" fill="#fa5933"/>
    <path id="Path_26" data-name="Path 26" d="M3404.875,43.236,3274.349-201.395,3068.363,180.992Z" transform="translate(188.851 0)" fill="#fcd5cb"/>
    <path id="Path_27" data-name="Path 27" d="M3343.092-201.395l-506.965,62.362,301.906,319.443Z" transform="translate(119.968 0)" fill="#fabdaf"/>
    <path id="Path_28" data-name="Path 28" d="M3620.513-84.393,3225.756-199.687l130.36,245.716Z" transform="translate(235.536 0.507)" fill="#fa7d60"/>
    <path id="Path_29" data-name="Path 29" d="M3799.662,227.452l-269.714-335.89,48.721,507.946Z" transform="translate(325.761 27.572)" fill="#fa7d60"/>
    <path id="Path_30" data-name="Path 30" d="M3906.7,513.938l-79.312-366.944L3441.748,452.588Z" transform="translate(299.6 105.112)" fill="#fcd5cb"/>
    <path id="Path_31" data-name="Path 31" d="M3730.623,641.079,3484.043,383.3,3299.25,641.079Z" transform="translate(257.334 173.425)" fill="#fcd5cb"/>
    <path id="Path_32" data-name="Path 32" d="M3843.878,605.644,3684,639.464,3441.212,383.07Z" transform="translate(299.441 173.357)" fill="#fa7d60"/>
    <path id="Path_33" data-name="Path 33" d="M3843.631,606.049l61.639-160.785-463.347-61.192Z" transform="translate(299.652 173.654)" fill="#ff6a47"/>
    <path id="Path_34" data-name="Path 34" d="M3341.28,753.3l385.905-171.757h-428.75Z" transform="translate(257.092 232.227)" fill="#fabdaf"/>
    <path id="Path_35" data-name="Path 35" d="M3739.653,667.3l-25.746-85.347L3332.374,753.119Z" transform="translate(267.159 232.349)" fill="#fa967f"/>
    <path id="Path_36" data-name="Path 36" d="M3717.145,762.553l21.5-115.47-406.354,86.542Z" transform="translate(267.133 251.666)" fill="#ff6a47"/>
    <path id="Path_38" data-name="Path 38" d="M3363.869,860.246l172.9-15.928L3331.717,713.684Z" transform="translate(266.964 271.421)" fill="#fabdaf"/>
    <path id="Path_39" data-name="Path 39" d="M3370.52,929.123l9.639-37.515-78.485-310.064-12.791,184.829Z" transform="translate(254.259 232.227)" fill="#fcd5cb"/>
    <path id="Path_40" data-name="Path 40" d="M3291.225,723.519l-10.234,184.774,93.183-21.989Z" transform="translate(251.918 274.337)" fill="#fa5933"/>
    <path id="Path_41" data-name="Path 41" d="M3306.274,950.213,3200.343,807.6l128.6-225.523Z" transform="translate(226.7 232.383)" fill="#fa5933"/>
    <path id="Path_42" data-name="Path 42" d="M3213.325,808.3l-44.534-27.925L3338.9,582.32Z" transform="translate(218.639 232.457)" fill="#fa7d60"/>
    <path id="Path_43" data-name="Path 43" d="M3105.126,757.083l85.365,23.626,169.835-201.443Z" transform="translate(199.755 231.551)" fill="#fa5933"/>
    <path id="Path_44" data-name="Path 44" d="M3365.7,580.793,3076.25,728.869l39.736,27.888Z" transform="translate(191.19 232.004)" fill="#ff6a47"/>
    <path id="Path_45" data-name="Path 45" d="M2980.569,748.464l126.485-4.273L3008.33,529.248Z" transform="translate(162.81 216.715)" fill="#fa5933"/>
    <path id="Path_46" data-name="Path 46" d="M3044.455,532.188,2858.869,689.628,3017.206,747.8Z" transform="translate(126.713 217.587)" fill="#ff6a47"/>
    <path id="Path_47" data-name="Path 47" d="M2868.093,688.86,2837.4,649.074,3051.8,530.984Z" transform="translate(120.345 217.23)" fill="#fa967f"/>
    <path id="Path_48" data-name="Path 48" d="M2798.211,610.1l53.572,40.1L3063.45,530.391Z" transform="translate(108.721 217.054)" fill="#fa7d60"/>
    <path id="Path_49" data-name="Path 49" d="M3077.1,530.391H2782.8l22.682,80.165Z" transform="translate(104.149 217.054)" fill="#fabdaf"/>
  </g>
</svg>
